<?xml version="1.0" encoding="iso-8859-1"?>
<!-- Uploaded to: SVG Repo, www.svgrepo.com, Generator: SVG Repo Mixer Tools -->
<svg version="1.1" id="Layer_1" xmlns="http://www.w3.org/2000/svg" xmlns:xlink="http://www.w3.org/1999/xlink" 
	 viewBox="0 0 512 512" xml:space="preserve">
<rect x="237.714" y="365.714" style="fill:#DBDBDB;" width="36.571" height="48.762"/>
<rect x="256" y="365.714" style="fill:#CCCCCE;" width="18.286" height="48.762"/>
<path style="fill:#DBDBDB;" d="M231.619,457.143c-87.596,0-170.667-57.095-170.667-97.524h36.571
	c0,20.214,66.715,60.952,134.095,60.952V457.143z"/>
<path style="fill:#CCCCCE;" d="M451.048,359.619c0,40.428-83.072,97.524-170.667,97.524v-36.571
	c67.38,0,134.095-40.738,134.095-60.952H451.048z"/>
<path style="fill:#F6E27D;" d="M256,67.048c-127.92,0-231.619,103.699-231.619,231.619v36.571h463.238v-36.571
	C487.619,170.747,383.92,67.048,256,67.048z"/>
<path style="fill:#EFC27B;" d="M487.619,298.667c0-127.92-103.7-231.619-231.619-231.619v268.19h231.619V298.667z"/>
<g>
	<path style="fill:#F8E99B;" d="M207.238,42.667v182.857c0,13.466,21.832,24.381,48.762,24.381s48.762-10.915,48.762-24.381V42.667
		H207.238z"/>
	<path style="fill:#F8E99B;" d="M121.905,259.048c-5.049,0-9.143-4.092-9.143-9.143V103.619c0-5.051,4.094-9.143,9.143-9.143
		s9.143,4.092,9.143,9.143v146.286C131.048,254.955,126.954,259.048,121.905,259.048z"/>
</g>
<path style="fill:#F6E27D;" d="M390.095,259.048c-5.049,0-9.143-4.092-9.143-9.143V103.619c0-5.051,4.094-9.143,9.143-9.143
	s9.143,4.092,9.143,9.143v146.286C399.238,254.955,395.145,259.048,390.095,259.048z"/>
<path style="fill:#F8E99B;" d="M487.619,371.81c13.466,0,24.381-10.915,24.381-24.381c0-13.466-10.915-24.381-24.381-24.381
	c-109.714,0-121.905-24.381-231.619-24.381s-121.905,24.381-231.619,24.381C10.915,323.048,0,333.963,0,347.429
	c0,13.466,10.915,24.381,24.381,24.381H487.619z"/>
<rect x="219.429" y="408.381" style="fill:#88888F;" width="73.143" height="60.952"/>
<rect x="256" y="408.381" style="fill:#797781;" width="36.571" height="60.952"/>
<g>
	<path style="fill:#F6E27D;" d="M256,42.667v207.238c26.93,0,48.762-10.915,48.762-24.381V42.667H256z"/>
	<path style="fill:#F6E27D;" d="M487.619,323.048c-109.714,0-121.905-24.381-231.619-24.381v73.143h231.619
		c13.466,0,24.381-10.915,24.381-24.381C512,333.963,501.085,323.048,487.619,323.048z"/>
</g>
</svg>